<svg width="60" height="60" viewBox="0 0 60 60" fill="none" xmlns="http://www.w3.org/2000/svg">
<circle cx="30" cy="30" r="30" fill="#B3001B"/>
<path fill-rule="evenodd" clip-rule="evenodd" d="M16.1967 15.6619L16.0488 15.6464C15.5104 15.6267 15.0269 16.0074 14.9325 16.5531L14.917 16.701C14.8973 17.2394 15.278 17.7229 15.8237 17.8173L18.0243 18.1979L19.358 34.0875L19.3856 34.3263C19.6539 36.1382 21.2124 37.5004 23.0685 37.5004H38.9819L39.2215 37.4928C40.9662 37.3814 42.4128 36.062 42.6674 34.3093L44.0514 24.745L44.0753 24.5253C44.2027 22.7766 42.8174 21.259 41.0337 21.259H20.4758L20.1334 17.1731L20.1076 17.0114C20.0078 16.591 19.666 16.2623 19.2301 16.1869L16.1967 15.6619ZM22.8995 35.3037C22.1772 35.2246 21.5996 34.6446 21.5379 33.9051L20.6595 23.4465H41.0337L41.1623 23.4559C41.6228 23.5244 41.9554 23.955 41.8865 24.4318L40.5025 33.9954L40.4678 34.1664C40.2923 34.8352 39.6864 35.3129 38.9819 35.3129H23.0685L22.8995 35.3037ZM20.6162 42.0202C20.6162 40.8009 21.6044 39.8109 22.8241 39.8109C24.0435 39.8109 25.0334 40.8008 25.0334 42.0202C25.0334 43.2399 24.0434 44.2282 22.8241 44.2282C21.6046 44.2282 20.6162 43.2397 20.6162 42.0202ZM37.0245 42.0202C37.0245 40.8008 38.0144 39.8109 39.2339 39.8109C40.4533 39.8109 41.4432 40.8008 41.4432 42.0202C41.4432 43.2399 40.4532 44.2282 39.2339 44.2282C38.0145 44.2282 37.0245 43.2399 37.0245 42.0202ZM37.7372 27.7427C37.7372 27.1387 37.2475 26.649 36.6435 26.649H32.5995L32.4511 26.659C31.9172 26.7314 31.5058 27.189 31.5058 27.7427C31.5058 28.3468 31.9954 28.8365 32.5995 28.8365H36.6435L36.7919 28.8265C37.3257 28.7541 37.7372 28.2964 37.7372 27.7427Z" fill="#FCFCFC"/>
</svg>
